<?xml version="1.0" standalone="no"?>
<!DOCTYPE svg PUBLIC "-//W3C//DTD SVG 20010904//EN"
 "http://www.w3.org/TR/2001/REC-SVG-20010904/DTD/svg10.dtd">
<svg version="1.0" xmlns="http://www.w3.org/2000/svg"
 width="728.000000pt" height="728.000000pt" viewBox="0 0 728.000000 728.000000"
 preserveAspectRatio="xMidYMid meet">
<metadata>
Created by potrace 1.14, written by Peter Selinger 2001-2017
</metadata>
<g transform="translate(0.000000,728.000000) scale(0.100000,-0.100000)"
fill="#000000" stroke="none">
<path d="M1818 7032 c-18 -9 -35 -19 -38 -22 -3 -3 -57 -35 -120 -71 -63 -35
-122 -68 -132 -74 -9 -5 -56 -33 -105 -61 -48 -28 -144 -83 -213 -124 -69 -40
-154 -88 -190 -108 -36 -20 -67 -38 -70 -41 -3 -3 -19 -13 -35 -22 -83 -44
-455 -262 -453 -265 4 -3 213 -125 278 -161 37 -21 171 -98 230 -133 18 -11
190 -111 440 -255 102 -59 205 -119 230 -134 25 -14 96 -55 159 -91 62 -36
134 -77 159 -92 26 -15 67 -39 92 -53 25 -14 52 -30 60 -35 47 -30 173 -100
181 -100 5 0 9 -4 9 -10 0 -5 5 -10 10 -10 6 0 27 -11 48 -23 20 -13 57 -35
82 -49 25 -14 68 -38 95 -53 47 -27 97 -55 140 -82 254 -154 422 -225 640
-272 174 -38 426 -45 575 -16 25 5 44 9 110 22 19 4 37 8 40 8 3 1 32 9 65 20
33 10 65 19 70 21 24 6 159 65 172 75 7 6 13 8 13 4 0 -4 6 -3 13 3 6 5 29 19
50 31 20 12 52 30 71 40 18 11 44 25 57 33 13 7 26 15 29 18 3 3 23 15 45 26
22 12 123 70 225 129 102 59 201 116 220 127 104 60 126 73 132 83 4 5 8 7 8
2 0 -4 12 0 26 9 14 10 39 24 55 33 26 14 210 121 251 146 9 5 29 17 45 26 45
25 357 205 485 280 64 38 121 69 127 69 6 0 11 3 11 8 0 4 10 12 23 18 27 12
484 276 547 315 l44 28 -29 13 c-17 7 -32 15 -35 19 -3 3 -25 16 -50 30 -25
13 -47 26 -50 29 -3 3 -21 14 -40 25 -19 10 -51 28 -72 40 -20 11 -62 35 -95
54 -32 19 -72 42 -89 52 -17 9 -42 23 -55 31 -13 7 -26 15 -29 18 -3 3 -19 12
-35 21 -85 45 -250 144 -253 151 -2 4 -10 8 -18 8 -7 0 -38 16 -68 35 -30 19
-58 35 -61 35 -3 0 -22 11 -43 23 -20 13 -50 32 -67 43 -16 10 -32 19 -35 19
-4 1 -129 73 -235 136 -34 20 -24 23 -170 -60 -114 -65 -130 -76 -136 -84 -3
-5 -10 -9 -15 -9 -5 0 -39 -17 -75 -38 -36 -22 -78 -44 -92 -51 -15 -7 -27
-16 -27 -21 0 -4 -5 -8 -10 -8 -6 0 -79 -40 -163 -89 -84 -49 -170 -99 -192
-111 -87 -49 -161 -91 -180 -103 -55 -34 -124 -74 -230 -131 -11 -6 -22 -14
-25 -17 -3 -3 -36 -23 -75 -45 -38 -21 -94 -54 -125 -72 -30 -18 -68 -39 -85
-48 -16 -8 -43 -23 -60 -34 -126 -81 -200 -82 -330 -1 -16 10 -46 27 -65 38
-19 11 -75 43 -124 72 -49 28 -93 51 -97 51 -5 0 -9 4 -9 9 0 5 -9 13 -20 16
-11 4 -48 23 -83 44 -34 20 -79 45 -99 56 -21 11 -38 23 -38 27 0 5 -4 8 -9 8
-5 0 -80 41 -166 90 -86 50 -161 90 -165 90 -5 0 -10 3 -12 8 -2 6 -193 118
-288 169 -14 8 -38 23 -55 33 -16 10 -46 27 -65 38 -67 37 -105 59 -230 132
-103 61 -96 59 -132 42z"/>
<path d="M264 5361 c-1 -289 -3 -643 -4 -786 -2 -326 -3 -305 15 -305 8 0 15
-4 15 -10 0 -5 7 -10 15 -10 8 0 15 -4 15 -10 0 -5 5 -10 10 -10 9 0 117 -61
198 -112 15 -9 51 -29 80 -45 28 -15 52 -31 52 -35 0 -4 9 -8 19 -8 11 0 21
-4 23 -8 3 -8 75 -52 125 -76 13 -6 23 -14 23 -18 0 -5 4 -8 9 -8 5 0 45 -21
88 -46 43 -26 92 -55 108 -64 17 -10 80 -46 140 -81 61 -35 112 -66 115 -69 3
-3 16 -11 29 -18 13 -8 38 -22 55 -32 17 -9 65 -37 106 -60 41 -24 78 -48 82
-54 4 -6 8 -7 8 -2 0 4 16 -4 35 -18 19 -15 35 -24 35 -20 0 4 8 0 18 -8 9 -8
35 -25 57 -38 22 -12 56 -32 75 -43 19 -11 44 -25 55 -31 110 -62 150 -100
166 -160 11 -41 17 -341 7 -352 -3 -3 -2 -20 2 -39 4 -19 5 -36 2 -40 -8 -8
-6 -160 2 -173 4 -7 4 -12 -1 -12 -4 0 -8 -315 -8 -701 l0 -700 30 -17 c17 -9
32 -19 35 -22 5 -5 25 -17 99 -57 25 -14 53 -31 61 -37 8 -6 35 -22 60 -35 25
-13 51 -29 59 -35 15 -11 48 -31 71 -42 8 -4 80 -46 160 -93 80 -48 159 -93
175 -101 17 -8 32 -18 35 -21 3 -3 27 -19 55 -35 27 -16 63 -37 80 -47 16 -10
38 -20 48 -23 9 -4 17 -10 17 -15 0 -5 4 -9 9 -9 5 0 60 -30 123 -67 167 -99
169 -101 219 -127 l45 -24 0 210 c-1 115 2 212 7 215 4 2 3 12 -3 22 -5 10 -7
21 -4 23 10 11 10 1128 0 1128 -7 0 -7 3 0 8 10 6 16 363 16 1062 1 203 -6
297 -28 390 -3 14 -8 36 -10 50 -12 65 -71 235 -113 325 -91 193 -178 314
-336 471 -127 125 -262 222 -437 314 -27 14 -48 28 -48 32 0 5 -4 8 -9 8 -8 0
-151 80 -161 90 -3 3 -16 11 -29 18 -65 37 -99 56 -126 73 -16 10 -61 36 -100
58 -38 23 -92 54 -120 71 -27 17 -59 35 -70 41 -24 12 -38 20 -132 77 -44 26
-77 41 -85 36 -7 -4 -10 -4 -6 1 8 9 -6 21 -62 52 -19 11 -135 79 -258 152
-123 72 -227 131 -232 131 -6 0 -10 4 -10 8 0 5 -12 14 -27 21 -15 7 -90 50
-167 96 -78 45 -157 92 -176 103 -19 11 -93 54 -163 96 -71 42 -133 76 -138
76 -5 0 -9 5 -9 10 0 6 -4 10 -10 10 -5 0 -31 13 -57 28 l-48 29 -1 -526z"/>
<path d="M6895 5818 c-55 -33 -118 -70 -140 -83 -75 -42 -120 -69 -125 -75 -3
-3 -16 -11 -30 -17 -14 -7 -47 -26 -75 -43 -27 -16 -58 -33 -67 -36 -10 -4
-18 -10 -18 -15 0 -5 -6 -9 -14 -9 -7 0 -19 -7 -26 -15 -7 -8 -16 -13 -20 -10
-4 3 -13 -1 -19 -9 -6 -7 -29 -21 -51 -31 -22 -10 -40 -22 -40 -27 0 -4 -4 -8
-10 -8 -5 0 -44 -21 -87 -46 -43 -26 -91 -54 -108 -64 -59 -34 -431 -252 -478
-281 -27 -16 -53 -29 -58 -29 -5 0 -9 -4 -9 -10 0 -5 -5 -10 -11 -10 -12 0
-252 -140 -260 -153 -3 -5 -8 -7 -10 -6 -2 1 -58 -29 -124 -68 -396 -232 -466
-273 -474 -273 -5 0 -11 -3 -13 -7 -1 -5 -30 -26 -63 -47 -88 -58 -191 -144
-270 -228 -88 -92 -102 -110 -159 -194 -25 -38 -50 -74 -55 -80 -5 -6 -12 -20
-15 -32 -4 -12 -12 -22 -17 -22 -5 0 -9 -4 -9 -9 0 -5 -17 -47 -39 -93 -49
-106 -76 -177 -96 -253 -23 -88 -23 -88 -40 -190 -21 -128 -21 -66 -10 -1605
9 -1335 9 -1390 12 -1390 7 0 319 186 321 192 2 5 8 8 14 8 6 0 55 27 110 60
54 33 101 60 103 60 2 0 40 23 85 50 45 28 83 50 84 50 2 0 56 31 120 70 65
38 119 70 121 70 2 0 39 22 82 48 43 27 85 52 93 55 8 4 33 18 55 32 22 14 56
34 75 45 19 11 53 31 75 44 l40 24 0 724 c0 397 -3 733 -7 746 -4 12 -4 22 0
22 5 0 7 15 5 33 -3 28 -3 44 -2 90 0 6 0 26 0 42 -1 17 -1 37 -1 45 1 8 -1
32 -2 53 -2 21 0 41 4 44 5 2 5 10 1 16 -13 21 -5 180 11 218 17 42 66 95 96
104 11 4 20 11 20 16 0 5 5 9 10 9 9 0 120 63 230 130 101 61 318 186 327 188
7 2 13 8 13 13 0 5 4 9 9 9 5 0 147 81 316 180 168 99 310 180 316 180 5 0 9
4 9 9 0 5 8 11 18 15 9 3 24 10 32 16 25 16 354 210 363 213 5 1 8 124 7 272
-5 1007 -9 1329 -16 1331 -5 2 -54 -25 -109 -58z"/>
</g>
</svg>
