<svg width="47" height="45" viewBox="0 0 47 45" fill="none" xmlns="http://www.w3.org/2000/svg">
<path d="M9.04167 27.125H27.125V24.5417H9.04167V27.125ZM9.04167 19.375H37.4583V16.7917H9.04167V19.375ZM9.04167 11.625H37.4583V9.04167H9.04167V11.625ZM0 44.1154V4.17305C0 2.98407 0.398264 1.99132 1.19479 1.19479C1.99132 0.398264 2.98407 0 4.17305 0H42.3269C43.5159 0 44.5087 0.398264 45.3052 1.19479C46.1017 1.99132 46.5 2.98407 46.5 4.17305V31.9936C46.5 33.1826 46.1017 34.1753 45.3052 34.9719C44.5087 35.7684 43.5159 36.1667 42.3269 36.1667H7.94872L0 44.1154ZM6.84583 33.5833H42.3269C42.7243 33.5833 43.0887 33.4177 43.4199 33.0866C43.7511 32.7553 43.9167 32.391 43.9167 31.9936V4.17305C43.9167 3.77565 43.7511 3.41134 43.4199 3.08011C43.0887 2.74893 42.7243 2.58333 42.3269 2.58333H4.17305C3.77565 2.58333 3.41133 2.74893 3.08011 3.08011C2.74892 3.41134 2.58333 3.77565 2.58333 4.17305V37.8309L6.84583 33.5833Z" fill="white"/>
</svg>
