<svg width="30" height="28" viewBox="0 0 30 28" fill="none" xmlns="http://www.w3.org/2000/svg">
<path d="M6.34587 17.3044H17.3107V15.738H6.34587V17.3044ZM6.34587 12.6052H23.5762V11.0388H6.34587V12.6052ZM6.34587 7.90597H23.5762V6.33957H6.34587V7.90597ZM0.86348 27.6064V3.3875C0.86348 2.66656 1.10497 2.06461 1.58794 1.58164C2.07091 1.09866 2.67287 0.857178 3.3938 0.857178H26.5283C27.2493 0.857178 27.8512 1.09866 28.3342 1.58164C28.8172 2.06461 29.0586 2.66656 29.0586 3.3875V20.2564C29.0586 20.9774 28.8172 21.5793 28.3342 22.0623C27.8512 22.5453 27.2493 22.7867 26.5283 22.7867H5.68317L0.86348 27.6064ZM5.01443 21.2203H26.5283C26.7693 21.2203 26.9902 21.1199 27.191 20.9191C27.3918 20.7183 27.4922 20.4974 27.4922 20.2564V3.3875C27.4922 3.14653 27.3918 2.92563 27.191 2.72479C26.9902 2.52398 26.7693 2.42358 26.5283 2.42358H3.3938C3.15284 2.42358 2.93193 2.52398 2.7311 2.72479C2.53028 2.92563 2.42988 3.14653 2.42988 3.3875V23.7959L5.01443 21.2203Z" fill="white"/>
</svg>
