<svg width="59" height="57" viewBox="0 0 59 57" fill="none" xmlns="http://www.w3.org/2000/svg">
<path d="M11.3167 34.8936H33.95V31.5704H11.3167V34.8936ZM11.3167 24.924H46.8833V21.6008H11.3167V24.924ZM11.3167 14.9544H46.8833V11.6312H11.3167V14.9544ZM0 56.75V5.36821C0 3.83871 0.498472 2.56163 1.49542 1.53698C2.49236 0.512326 3.7349 0 5.22305 0H52.977C54.4651 0 55.7076 0.512326 56.7046 1.53698C57.7015 2.56163 58.2 3.83871 58.2 5.36821V41.1566C58.2 42.6861 57.7015 43.9631 56.7046 44.9878C55.7076 46.0124 54.4651 46.5248 52.977 46.5248H9.94872L0 56.75ZM8.56833 43.2016H52.977C53.4743 43.2016 53.9303 42.9886 54.3449 42.5625C54.7594 42.1364 54.9667 41.6678 54.9667 41.1566V5.36821C54.9667 4.85699 54.7594 4.38834 54.3449 3.96225C53.9303 3.53622 53.4743 3.3232 52.977 3.3232H5.22305C4.72565 3.3232 4.26967 3.53622 3.8551 3.96225C3.44059 4.38834 3.23333 4.85699 3.23333 5.36821V48.6657L8.56833 43.2016Z" fill="white"/>
</svg>
