<svg width="73" height="73" viewBox="0 0 73 73" fill="none" xmlns="http://www.w3.org/2000/svg">
<mask id="mask0_1_2477" style="mask-type:luminance" maskUnits="userSpaceOnUse" x="0" y="12" width="35" height="61">
<path d="M34.1252 72.2783L19.2944 63.5689L19.4224 42.6166C19.4224 41.8551 19.0211 41.145 18.3637 40.76L0.331055 30.1684L0.442051 12.9463L25.7919 27.8328C31.0856 30.9384 34.3472 36.6877 34.313 42.839L34.1252 72.2869V72.2783Z" fill="white"/>
</mask>
<g mask="url(#mask0_1_2477)">
<path d="M17.2617 64.8521L36.5238 75.9998V53.7129L17.2617 64.8521Z" fill="#FAB712"/>
<path d="M36.5238 31.4258L17.2617 42.5735L36.5238 53.7127V31.4258Z" fill="#F4980C"/>
<path d="M36.5238 53.7124L17.2617 42.5732V64.8516L36.5238 53.7124Z" fill="#F7A80F"/>
<path d="M17.2621 20.2864L-2 9.13867V31.4256L17.2621 20.2864Z" fill="#EC6608"/>
<path d="M17.2617 20.2871V42.574L36.5238 31.4263L17.2617 20.2871Z" fill="#F1880A"/>
<path d="M-2 31.4253L17.2621 42.5731V20.2861L-2 31.4253Z" fill="#EF7809"/>
</g>
<mask id="mask1_1_2477" style="mask-type:luminance" maskUnits="userSpaceOnUse" x="2" y="0" width="69" height="27">
<path d="M17.3476 0.472412L35.4486 10.9443C36.106 11.3293 36.9257 11.3293 37.5831 10.9443L55.6926 0.472412L70.5832 9.08775L45.1308 23.8117C39.8201 26.8831 33.2201 26.8831 27.9008 23.8117L2.45703 9.07919L17.3476 0.472412Z" fill="white"/>
</mask>
<g mask="url(#mask1_1_2477)">
<path d="M75.0405 9.13919L55.7783 -2V20.2869L75.0405 9.13919Z" fill="#1E6AAE"/>
<path d="M36.5244 9.13919L55.778 20.2869V-2L36.5244 9.13919Z" fill="#1D7ABB"/>
<path d="M36.5244 31.4266L55.778 20.2874L36.5244 9.13965V31.4266Z" fill="#1E8AC8"/>
<path d="M36.5238 9.13867L17.2617 20.2864L36.5238 31.4256V9.13867Z" fill="#259AD4"/>
<path d="M17.2617 20.2869L36.5238 9.13919L17.2617 -2V20.2869Z" fill="#2FAAE0"/>
<path d="M17.2621 -2L-2 9.13919L17.2621 20.2869V-2Z" fill="#3AB9EB"/>
</g>
<mask id="mask2_1_2477" style="mask-type:luminance" maskUnits="userSpaceOnUse" x="38" y="12" width="35" height="61">
<path d="M54.6761 40.7596C54.0187 41.1446 53.6174 41.8547 53.6174 42.6161L53.7455 63.5684L38.9147 72.2778L38.7268 42.83C38.6927 36.6872 41.9543 30.9379 47.2479 27.8237L72.5978 12.9373L72.7088 30.1594L54.6761 40.751V40.7596Z" fill="white"/>
</mask>
<g mask="url(#mask2_1_2477)">
<path d="M36.5244 53.7126V75.9996L55.778 64.8518L36.5244 53.7126Z" fill="#FCEA10"/>
<path d="M55.778 64.8514V42.573L36.5244 53.7122L55.778 64.8514Z" fill="#DEDC00"/>
<path d="M36.5244 31.4253V53.7122L55.778 42.573L36.5244 31.4253Z" fill="#95C11F"/>
<path d="M55.7783 42.5738L75.0405 31.4261L55.7783 20.2869V42.5738Z" fill="#008D36"/>
<path d="M55.778 20.2859L36.5244 31.4251L55.778 42.5728V20.2859Z" fill="#3AAA35"/>
<path d="M55.7783 20.2862L75.0405 31.4254V9.13843L55.7783 20.2862Z" fill="#006633"/>
</g>
</svg>
