<svg width="48" height="49" viewBox="0 0 48 49" fill="none" xmlns="http://www.w3.org/2000/svg">
<mask id="mask0_80_16261" style="mask-type:luminance" maskUnits="userSpaceOnUse" x="0" y="8" width="23" height="41">
<path d="M22.1285 48.7909L12.4172 42.873L12.5011 28.6362C12.5011 28.1188 12.2383 27.6363 11.8078 27.3747L0 20.1778L0.0726808 8.47559L16.6719 18.5908C20.1382 20.701 22.2739 24.6075 22.2515 28.7873L22.1285 48.7967V48.7909Z" fill="white"/>
</mask>
<g mask="url(#mask0_80_16261)">
<path d="M11.0866 43.7452L23.6995 51.32V36.1763L11.0866 43.7452Z" fill="#FAB712"/>
<path d="M23.6995 21.0322L11.0866 28.607L23.6995 36.1759V21.0322Z" fill="#F4980C"/>
<path d="M23.6995 36.1759L11.0866 28.6069V43.7448L23.6995 36.1759Z" fill="#F7A80F"/>
<path d="M11.0866 13.4634L-1.52631 5.88867V21.0324L11.0866 13.4634Z" fill="#EC6608"/>
<path d="M11.0866 13.4634V28.6071L23.6995 21.0323L11.0866 13.4634Z" fill="#F1880A"/>
<path d="M-1.52631 21.0323L11.0866 28.6071V13.4634L-1.52631 21.0323Z" fill="#EF7809"/>
</g>
<mask id="mask1_80_16261" style="mask-type:luminance" maskUnits="userSpaceOnUse" x="1" y="0" width="46" height="18">
<path d="M11.1425 0L22.9951 7.1155C23.4256 7.3771 23.9623 7.3771 24.3928 7.1155L36.251 0L46.0014 5.85401L29.3351 15.8587C25.8576 17.9457 21.5359 17.9457 18.0528 15.8587L1.39212 5.8482L11.1425 0Z" fill="white"/>
</mask>
<g mask="url(#mask1_80_16261)">
<path d="M48.9198 5.88876L36.3069 -1.68018V13.4635L48.9198 5.88876Z" fill="#1E6AAE"/>
<path d="M23.6996 5.88876L36.3069 13.4635V-1.68018L23.6996 5.88876Z" fill="#1D7ABB"/>
<path d="M23.6996 21.0324L36.3069 13.4634L23.6996 5.88867V21.0324Z" fill="#1E8AC8"/>
<path d="M23.6995 5.88867L11.0866 13.4634L23.6995 21.0324V5.88867Z" fill="#259AD4"/>
<path d="M11.0866 13.4635L23.6995 5.88876L11.0866 -1.68018V13.4635Z" fill="#2FAAE0"/>
<path d="M11.0866 -1.68018L-1.52631 5.88876L11.0866 13.4635V-1.68018Z" fill="#3AB9EB"/>
</g>
<mask id="mask2_80_16261" style="mask-type:luminance" maskUnits="userSpaceOnUse" x="25" y="8" width="23" height="41">
<path d="M35.5857 27.3751C35.1552 27.6367 34.8924 28.1192 34.8924 28.6366L34.9763 42.8734L25.265 48.7914L25.142 28.7819C25.1196 24.608 27.2553 20.7014 30.7216 18.5854L47.3208 8.47021L47.3935 20.1724L35.5857 27.3693V27.3751Z" fill="white"/>
</mask>
<g mask="url(#mask2_80_16261)">
<path d="M23.6996 36.1768V51.3204L36.3069 43.7457L23.6996 36.1768Z" fill="#FCEA10"/>
<path d="M36.3069 43.7453V28.6074L23.6996 36.1764L36.3069 43.7453Z" fill="#DEDC00"/>
<path d="M23.6996 21.0327V36.1764L36.3069 28.6075L23.6996 21.0327Z" fill="#95C11F"/>
<path d="M36.3069 28.6076L48.9198 21.0328L36.3069 13.4639V28.6076Z" fill="#008D36"/>
<path d="M36.3069 13.4639L23.6996 21.0328L36.3069 28.6076V13.4639Z" fill="#3AAA35"/>
<path d="M36.3069 13.4639L48.9198 21.0328V5.88916L36.3069 13.4639Z" fill="#006633"/>
</g>
</svg>
