<svg width="42" height="38" viewBox="0 0 42 38" fill="none" xmlns="http://www.w3.org/2000/svg">
<path d="M14 38V35.625H18.6667V30.875H3.76921C2.69529 30.875 1.79861 30.5089 1.07917 29.7766C0.359722 29.0443 0 28.1316 0 27.0385V3.83651C0 2.74342 0.359722 1.83073 1.07917 1.09844C1.79861 0.366146 2.69529 0 3.76921 0H38.2308C39.3047 0 40.2014 0.366146 40.9208 1.09844C41.6403 1.83073 42 2.74342 42 3.83651V27.0385C42 28.1316 41.6403 29.0443 40.9208 29.7766C40.2014 30.5089 39.3047 30.875 38.2308 30.875H23.3333V35.625H28V38H14ZM3.76921 28.5H38.2308C38.5897 28.5 38.9188 28.3477 39.218 28.0432C39.5171 27.7388 39.6667 27.4038 39.6667 27.0385V3.83651C39.6667 3.47116 39.5171 3.13623 39.218 2.83171C38.9188 2.52724 38.5897 2.375 38.2308 2.375H3.76921C3.41026 2.375 3.08121 2.52724 2.78203 2.83171C2.4829 3.13623 2.33333 3.47116 2.33333 3.83651V27.0385C2.33333 27.4038 2.4829 27.7388 2.78203 28.0432C3.08121 28.3477 3.41026 28.5 3.76921 28.5Z" fill="white"/>
</svg>
