<svg width="34" height="42" viewBox="0 0 34 42" fill="none" xmlns="http://www.w3.org/2000/svg">
<path d="M3.43267 42C2.48188 42 1.67206 41.6695 1.00321 41.0086C0.334404 40.3476 0 39.5473 0 38.6077V3.39229C0 2.45268 0.334404 1.65238 1.00321 0.991409C1.67206 0.330469 2.48188 0 3.43267 0H30.5673C31.5181 0 32.3279 0.330469 32.9968 0.991409C33.6656 1.65238 34 2.45268 34 3.39229V38.6077C34 39.5473 33.6656 40.3476 32.9968 41.0085C32.3279 41.6695 31.5181 42 30.5673 42H3.43267ZM2.125 32.6309V38.6078C2.125 38.9847 2.2476 39.2943 2.49278 39.5366C2.73797 39.7789 3.05127 39.9 3.43267 39.9H30.5673C30.9487 39.9 31.262 39.7788 31.5072 39.5365C31.7524 39.2942 31.875 38.9846 31.875 38.6077V32.6308H2.125V32.6309ZM13.2404 37.0731H20.7596V35.4578H13.2404V37.0731ZM2.125 30.5307H31.875V7.35H2.125V30.5307ZM2.125 5.25H31.875V3.39229C31.875 3.01537 31.7524 2.70576 31.5072 2.46346C31.262 2.22115 30.9487 2.1 30.5673 2.1H3.43267C3.05127 2.1 2.73797 2.22115 2.49278 2.46346C2.2476 2.70576 2.125 3.01537 2.125 3.39229V5.25Z" fill="white"/>
</svg>
