<svg width="42" height="42" viewBox="0 0 42 42" fill="none" xmlns="http://www.w3.org/2000/svg">
<path d="M15.1777 42C13.2436 42 11.5865 41.3418 10.2064 40.0254C8.82633 38.709 8.09482 37.1 8.01189 35.1983C5.85549 34.8246 4.06403 33.8098 2.63749 32.154C1.21094 30.4983 0.497674 28.5672 0.497674 26.3606C0.497674 25.5774 0.599672 24.8036 0.803667 24.039C1.0077 23.2745 1.31376 22.5565 1.72184 21.8852C1.14789 21.1508 0.717432 20.3362 0.430459 19.4415C0.143486 18.5467 0 17.6072 0 16.6229C0 14.3163 0.771342 12.3216 2.31403 10.6389C3.85667 8.95611 5.76756 7.99343 8.04669 7.75082C8.01353 7.61967 7.99694 7.48852 7.99694 7.35737V6.91475C8.02679 4.97051 8.73674 3.33198 10.1268 1.99917C11.5168 0.66639 13.2005 0 15.1777 0C16.4318 0 17.5025 0.245893 18.3899 0.737676C19.2774 1.2295 20.1474 1.95247 21 2.90658C21.8758 1.95247 22.7434 1.2295 23.6026 0.737676C24.4619 0.245893 25.5351 0 26.8223 0C28.7525 0 30.4136 0.672122 31.8056 2.01636C33.1976 3.36065 33.9085 4.98852 33.9384 6.89999V7.3426C33.9384 7.47375 33.9218 7.6049 33.8886 7.73605C36.1678 7.97866 38.0894 8.93604 39.6536 10.6082C41.2179 12.2803 42 14.2852 42 16.6229C42 17.6072 41.8482 18.5467 41.5446 19.4415C41.2411 20.3362 40.8024 21.1508 40.2284 21.8852C40.6365 22.5541 40.9508 23.2712 41.1714 24.0366C41.392 24.8019 41.5023 25.5766 41.5023 26.3606C41.5023 28.6098 40.7866 30.5598 39.3551 32.2106C37.9236 33.8615 36.113 34.8574 33.9234 35.1983C33.8405 37.1 33.1198 38.709 31.7612 40.0254C30.4027 41.3418 28.7564 42 26.8223 42C25.5118 42 24.4328 41.7565 23.5852 41.2696C22.7376 40.7827 21.8758 40.0459 21 39.059C20.1142 40.0459 19.2417 40.7827 18.3824 41.2696C17.5232 41.7565 16.455 42 15.1777 42ZM22.2938 7.03278V34.9672C22.2938 36.2203 22.7337 37.2795 23.6133 38.1447C24.4929 39.0099 25.5697 39.4426 26.8436 39.4426C28.0568 39.4426 29.0923 39.0196 29.9499 38.1737C30.8074 37.3278 31.2744 36.3147 31.3507 35.1344C30.0801 35.0229 28.9015 34.6631 27.815 34.0549C26.7285 33.4467 25.8171 32.6229 25.0806 31.5836C24.8483 31.2819 24.7599 30.965 24.8154 30.6327C24.8708 30.3005 25.0538 30.0306 25.3642 29.8229C25.6695 29.5934 25.9965 29.506 26.3453 29.5608C26.6941 29.6156 26.9775 29.7964 27.1955 30.1032C27.7915 30.9601 28.5502 31.6161 29.4713 32.0713C30.3925 32.5265 31.3839 32.7541 32.4455 32.7541C34.2668 32.7541 35.8003 32.1385 37.0461 30.9073C38.2918 29.6762 38.9146 28.1606 38.9146 26.3606C38.9146 25.929 38.8624 25.4973 38.7579 25.0656C38.6534 24.6339 38.5083 24.2131 38.3225 23.8033C37.5893 24.3606 36.7591 24.7951 35.8318 25.1066C34.9046 25.418 33.9417 25.5737 32.9431 25.5737C32.5765 25.5737 32.2692 25.451 32.0212 25.2056C31.7732 24.9602 31.6492 24.6561 31.6492 24.2933C31.6492 23.9306 31.7732 23.627 32.0212 23.3828C32.2692 23.1385 32.5765 23.0164 32.9431 23.0164C34.7644 23.0164 36.298 22.4008 37.5437 21.1696C38.7894 19.9385 39.4123 18.4229 39.4123 16.6229C39.4123 14.874 38.806 13.39 37.5934 12.1711C36.3809 10.9521 34.8971 10.3049 33.1421 10.2295C32.7341 11.0295 32.1859 11.7254 31.4975 12.3172C30.8091 12.909 30.0287 13.3754 29.1561 13.7164C28.831 13.841 28.5085 13.8306 28.1886 13.6853C27.8687 13.5399 27.6554 13.3011 27.5488 12.9688C27.4327 12.6475 27.4401 12.323 27.5712 11.9951C27.7022 11.6672 27.9469 11.4459 28.3052 11.3311C29.2175 11.0197 29.9532 10.4721 30.5122 9.68855C31.0712 8.90492 31.3507 8.01149 31.3507 7.00823C31.3507 5.76888 30.9127 4.71723 30.0366 3.85326C29.1606 2.98934 28.0882 2.55737 26.8195 2.55737C25.5507 2.55737 24.4793 2.98999 23.6051 3.85524C22.7309 4.72048 22.2938 5.77966 22.2938 7.03278ZM19.7062 34.9672V7.03278C19.7062 5.77966 19.2681 4.72048 18.3921 3.85524C17.5161 2.98999 16.4437 2.55737 15.175 2.55737C13.9062 2.55737 12.8347 2.98999 11.9605 3.85524C11.0864 4.72048 10.6493 5.77966 10.6493 7.03278C10.6493 8.00982 10.9263 8.89261 11.4803 9.68113C12.0344 10.4697 12.7675 11.0197 13.6799 11.3311C14.005 11.4459 14.2522 11.659 14.4214 11.9705C14.5905 12.282 14.6199 12.6019 14.5095 12.9303C14.3769 13.2588 14.145 13.4949 13.8136 13.6385C13.4823 13.7823 13.1375 13.7918 12.7792 13.6672C11.9066 13.3263 11.1262 12.8681 10.4378 12.2927C9.74942 11.7172 9.2012 11.0295 8.79317 10.2295C7.0813 10.3049 5.61909 10.9582 4.40655 12.1893C3.19401 13.4205 2.58774 14.9037 2.58774 16.6388C2.58774 18.4282 3.21059 19.9385 4.4563 21.1696C5.70204 22.4008 7.23559 23.0164 9.05692 23.0164C9.42351 23.0164 9.73079 23.1391 9.97878 23.3845C10.2268 23.6299 10.3508 23.934 10.3508 24.2968C10.3508 24.6596 10.2268 24.9631 9.97878 25.2073C9.73079 25.4516 9.42351 25.5737 9.05692 25.5737C8.05834 25.5737 7.09542 25.418 6.16817 25.1066C5.24092 24.7951 4.41071 24.3606 3.67754 23.8033C3.49174 24.2131 3.34659 24.6339 3.24209 25.0656C3.1376 25.4973 3.08535 25.929 3.08535 26.3606C3.08535 28.1606 3.7082 29.6762 4.9539 30.9073C6.19965 32.1385 7.73319 32.7541 9.55453 32.7541C10.626 32.7541 11.617 32.5237 12.5278 32.0631C13.4385 31.6024 14.1974 30.9491 14.8045 30.1032C15.0225 29.7964 15.3059 29.6156 15.6547 29.5608C16.0035 29.506 16.3305 29.5852 16.6358 29.7983C16.941 30.0114 17.1226 30.2868 17.1807 30.6245C17.2388 30.9622 17.1517 31.2819 16.9194 31.5836C16.1498 32.6229 15.2192 33.4491 14.1277 34.0622C13.0363 34.6754 11.8552 35.0377 10.5846 35.1492C10.6609 36.3295 11.1386 37.3401 12.0178 38.1811C12.897 39.0221 13.9432 39.4426 15.1564 39.4426C16.4303 39.4426 17.5071 39.0099 18.3867 38.1447C19.2663 37.2795 19.7062 36.2203 19.7062 34.9672Z" fill="white" fill-opacity="0.5"/>
</svg>
