<svg width="28" height="42" viewBox="0 0 28 42" fill="none" xmlns="http://www.w3.org/2000/svg">
<path d="M14 24C12.6838 24 11.5769 23.5385 10.6795 22.6154C9.78205 21.6923 9.33333 20.5538 9.33333 19.2V4.8C9.33333 3.44616 9.78205 2.3077 10.6795 1.38462C11.5769 0.461542 12.6838 0 14 0C15.3162 0 16.4231 0.461542 17.3205 1.38462C18.2179 2.3077 18.6667 3.44616 18.6667 4.8V19.2C18.6667 20.5538 18.2179 21.6923 17.3205 22.6154C16.4231 23.5385 15.3162 24 14 24ZM13.3333 42C13.0572 42 12.8333 41.7761 12.8333 41.5V33.5585C9.17778 33.2139 6.125 31.677 3.675 28.9477C1.33406 26.34 0.111492 23.2575 0.00728266 19.7003C-0.000803507 19.4243 0.223858 19.2 0.5 19.2H1.83333C2.10948 19.2 2.33236 19.4242 2.34207 19.7002C2.45136 22.8051 3.58595 25.4684 5.74583 27.69C8.02083 30.03 10.7722 31.2 14 31.2C17.2278 31.2 19.9792 30.03 22.2542 27.69C24.4141 25.4684 25.5486 22.8051 25.6579 19.7002C25.6676 19.4242 25.8905 19.2 26.1667 19.2H27.5C27.7761 19.2 28.0008 19.4243 27.9927 19.7003C27.8885 23.2575 26.6659 26.34 24.325 28.9477C21.875 31.677 18.8222 33.2139 15.1667 33.5585V41.5C15.1667 41.7761 14.9428 42 14.6667 42H13.3333ZM14 21.6C14.6611 21.6 15.2153 21.37 15.6625 20.91C16.1097 20.45 16.3333 19.88 16.3333 19.2V4.8C16.3333 4.12 16.1097 3.55 15.6625 3.09C15.2153 2.63 14.6611 2.4 14 2.4C13.3389 2.4 12.7847 2.63 12.3375 3.09C11.8903 3.55 11.6667 4.12 11.6667 4.8V19.2C11.6667 19.88 11.8903 20.45 12.3375 20.91C12.7847 21.37 13.3389 21.6 14 21.6Z" fill="white" fill-opacity="0.5"/>
</svg>
