<svg width="42" height="42" viewBox="0 0 42 42" fill="none" xmlns="http://www.w3.org/2000/svg">
<path d="M0.930781 42C0.654638 42 0.430781 41.7761 0.430781 41.5V39.6414C0.430781 39.3652 0.654638 39.1414 0.93078 39.1414H7.90113C8.34541 39.1414 8.56902 38.6052 8.2564 38.2895L6.14922 36.1618C3.97385 34.0068 2.40513 31.6429 1.44305 29.0702C0.481017 26.4974 0 23.8916 0 21.2528C0 16.6607 1.28242 12.5056 3.84727 8.78753C6.27381 5.27004 9.4337 2.70461 13.3269 1.09125C13.65 0.957362 14 1.19864 14 1.54837V3.52976C14 3.72962 13.8807 3.90976 13.6984 3.99175C10.443 5.45612 7.82787 7.72173 5.85312 10.7886C3.81771 13.9496 2.8 17.4377 2.8 21.2528C2.8 23.5801 3.23258 25.8386 4.09773 28.0284C4.96284 30.2182 6.30719 32.244 8.13078 34.1058L10.1274 36.1442C10.4409 36.4643 10.9846 36.2423 10.9846 35.7944V28.8665C10.9846 28.5904 11.2085 28.3665 11.4846 28.3665H13.2846C13.5608 28.3665 13.7846 28.5904 13.7846 28.8665V41.5C13.7846 41.7761 13.5608 42 13.2846 42H0.930781ZM28.6731 40.9087C28.35 41.0426 28 40.8014 28 40.4516V38.4702C28 38.2704 28.1193 38.0902 28.3016 38.0083C31.557 36.5439 34.1722 34.2783 36.1469 31.2114C38.1823 28.0504 39.2 24.5623 39.2 20.7472C39.2 18.4199 38.7674 16.1614 37.9023 13.9716C37.0372 11.7818 35.6928 9.75599 33.8692 7.89421L31.8726 5.85576C31.5591 5.53574 31.0154 5.75768 31.0154 6.20563V13.1335C31.0154 13.4096 30.7915 13.6335 30.5154 13.6335H28.7154C28.4392 13.6335 28.2154 13.4096 28.2154 13.1335V0.500001C28.2154 0.223859 28.4392 0 28.7154 0H41.0692C41.3454 0 41.5692 0.223858 41.5692 0.5V2.35864C41.5692 2.63478 41.3454 2.85864 41.0692 2.85864H34.0989C33.6546 2.85864 33.431 3.3948 33.7436 3.71047L35.8508 5.8382C37.9939 8.02616 39.5545 10.3983 40.5327 12.9546C41.5109 15.5109 42 18.1084 42 20.7472C42 25.3393 40.7176 29.4944 38.1527 33.2125C35.7262 36.73 32.5663 39.2954 28.6731 40.9087Z" fill="white" fill-opacity="0.5"/>
</svg>
