<svg width="67" height="27" viewBox="0 0 67 27" fill="none" xmlns="http://www.w3.org/2000/svg">
<path d="M0 27V24.3985C0 22.5483 0.999518 21.0128 2.99855 19.7922C4.99764 18.5717 7.57067 17.9614 10.7176 17.9614C11.1823 17.9614 11.6801 17.9836 12.2111 18.028C12.7421 18.0724 13.3063 18.1448 13.9036 18.2453C13.4273 19.068 13.0798 19.912 12.8612 20.7772C12.6425 21.6425 12.5332 22.5096 12.5332 23.3788V27H0ZM18.2727 27V23.6105C18.2727 22.3963 18.629 21.2864 19.3415 20.2808C20.0541 19.2753 21.1054 18.4056 22.4953 17.6717C23.8853 16.9378 25.5047 16.3873 27.3534 16.0203C29.2022 15.6534 31.2432 15.47 33.4766 15.47C35.7529 15.47 37.8154 15.6534 39.6642 16.0203C41.5129 16.3873 43.1322 16.9378 44.5222 17.6717C45.9122 18.4056 46.9605 19.2753 47.6672 20.2808C48.3739 21.2864 48.7273 22.3963 48.7273 23.6105V27H18.2727ZM54.4668 27V23.3961C54.4668 22.435 54.3604 21.5294 54.1476 20.6793C53.9348 19.8292 53.6156 19.0178 53.19 18.2453C53.8265 18.1448 54.3975 18.0724 54.9031 18.028C55.4087 17.9836 55.888 17.9614 56.3409 17.9614C59.4879 17.9614 62.0511 18.5688 64.0307 19.7836C66.0102 20.9984 67 22.5367 67 24.3985V27H54.4668ZM21.406 23.9871H45.6115V23.3498C45.4944 21.9206 44.3104 20.7522 42.0595 19.8444C39.8086 18.9367 36.9554 18.4828 33.5 18.4828C30.0446 18.4828 27.1914 18.9367 24.9405 19.8444C22.6896 20.7522 21.5115 21.9206 21.406 23.3498V23.9871ZM10.7021 15.1223C9.50601 15.1223 8.48725 14.7025 7.64584 13.8628C6.80443 13.0232 6.38373 12.0138 6.38373 10.8347C6.38373 9.66821 6.80809 8.67165 7.65681 7.84507C8.50552 7.01844 9.5258 6.60512 10.7176 6.60512C11.8968 6.60512 12.9139 7.01844 13.769 7.84507C14.624 8.67165 15.0516 9.67398 15.0516 10.8521C15.0516 11.9954 14.6347 12.993 13.8011 13.8447C12.9674 14.6964 11.9345 15.1223 10.7021 15.1223ZM56.3409 15.1223C55.1735 15.1223 54.1593 14.6964 53.2984 13.8447C52.4375 12.993 52.007 11.9954 52.007 10.8521C52.007 9.67398 52.4375 8.67165 53.2984 7.84507C54.1593 7.01844 55.1773 6.60512 56.3523 6.60512C57.5629 6.60512 58.586 7.01844 59.4215 7.84507C60.2571 8.67165 60.6748 9.66821 60.6748 10.8347C60.6748 12.0138 60.2595 13.0232 59.4288 13.8628C58.5982 14.7025 57.5689 15.1223 56.3409 15.1223ZM33.5206 13.2103C31.6718 13.2103 30.0934 12.5681 28.7854 11.2838C27.4774 9.99947 26.8234 8.43991 26.8234 6.60512C26.8234 4.73367 27.4725 3.16495 28.7707 1.89894C30.0689 0.632979 31.6454 0 33.5 0C35.3917 0 36.9774 0.631021 38.2571 1.89306C39.5368 3.15515 40.1766 4.71904 40.1766 6.58471C40.1766 8.41377 39.5388 9.97529 38.263 11.2693C36.9873 12.5633 35.4065 13.2103 33.5206 13.2103ZM33.5293 10.1974C34.5288 10.1974 35.379 9.84109 36.0799 9.1284C36.7807 8.41576 37.1311 7.56502 37.1311 6.57619C37.1311 5.58732 36.7831 4.74623 36.0872 4.05291C35.3912 3.35955 34.5288 3.01287 33.5 3.01287C32.52 3.01287 31.6698 3.35715 30.9494 4.04569C30.2291 4.73418 29.8689 5.58732 29.8689 6.60512C29.8689 7.57466 30.2291 8.41576 30.9494 9.1284C31.6698 9.84109 32.5297 10.1974 33.5293 10.1974Z" fill="white"/>
</svg>
