<svg width="42" height="42" viewBox="0 0 42 42" fill="none" xmlns="http://www.w3.org/2000/svg">
<path d="M19.1154 37.634L7.71797 31.0154C7.12864 30.6773 6.66721 30.2182 6.33366 29.6378C6.00011 29.0575 5.83333 28.4293 5.83333 27.7532V14.516C5.83333 13.8399 6.00011 13.2117 6.33366 12.6314C6.66721 12.051 7.12864 11.5919 7.71797 11.2538L19.1154 4.63522C19.7047 4.2972 20.3329 4.12819 21 4.12819C21.6671 4.12819 22.2953 4.2972 22.8846 4.63522L34.282 11.2538C34.8714 11.5919 35.3328 12.051 35.6663 12.6314C35.9999 13.2117 36.1667 13.8399 36.1667 14.516V27.7532C36.1667 28.4293 35.9999 29.0575 35.6663 29.6378C35.3328 30.2182 34.8714 30.6773 34.282 31.0154L22.8846 37.634C22.2953 37.972 21.6671 38.141 21 38.141C20.3329 38.141 19.7047 37.972 19.1154 37.634ZM19.8333 35.3635V21.7583L8.16667 15.1218V27.7532C8.16667 27.9925 8.2265 28.2169 8.34616 28.4263C8.46582 28.6357 8.64531 28.8151 8.88463 28.9647L19.8333 35.3635ZM22.1667 35.3635L33.1154 28.9647C33.3547 28.8151 33.5342 28.6357 33.6538 28.4263C33.7735 28.2169 33.8333 27.9925 33.8333 27.7532V15.1218L22.1667 21.7583V35.3635ZM0 9.33333V3.76921C0 2.7252 0.367189 1.83598 1.10157 1.10157C1.83598 0.367187 2.7252 0 3.76921 0H9.33333V2.33333H3.76921C3.35041 2.33333 3.0064 2.46795 2.73718 2.73717C2.46795 3.0064 2.33333 3.35041 2.33333 3.76921V9.33333H0ZM9.33333 42H3.76921C2.7252 42 1.83598 41.6328 1.10157 40.8984C0.367189 40.164 0 39.2748 0 38.2308V32.6667H2.33333V38.2308C2.33333 38.6496 2.46795 38.9936 2.73718 39.2628C3.0064 39.5321 3.35041 39.6667 3.76921 39.6667H9.33333V42ZM32.6667 42V39.6667H38.2308C38.6496 39.6667 38.9936 39.5321 39.2628 39.2628C39.5321 38.9936 39.6667 38.6496 39.6667 38.2308V32.6667H42V38.2308C42 39.2748 41.6328 40.164 40.8984 40.8984C40.164 41.6328 39.2748 42 38.2308 42H32.6667ZM39.6667 9.33333V3.76921C39.6667 3.35041 39.5321 3.0064 39.2628 2.73717C38.9936 2.46795 38.6496 2.33333 38.2308 2.33333H32.6667V0H38.2308C39.2748 0 40.164 0.367187 40.8984 1.10157C41.6328 1.83598 42 2.7252 42 3.76921V9.33333H39.6667ZM21 19.7525L32.6397 13.0263L21.718 6.73079C21.4786 6.58123 21.2393 6.50644 21 6.50644C20.7607 6.50644 20.5214 6.58123 20.282 6.73079L9.36028 13.0263L21 19.7525Z" fill="white" fill-opacity="0.5"/>
</svg>
