<svg width="38" height="42" viewBox="0 0 38 42" fill="none" xmlns="http://www.w3.org/2000/svg">
<path d="M3.83652 42C2.77386 42 1.86877 41.6328 1.12124 40.8984C0.373746 40.164 0 39.2748 0 38.2308V8.43587C0 7.39186 0.373746 6.50265 1.12124 5.76823C1.86877 5.03385 2.77386 4.66667 3.83652 4.66667H14.999C14.7829 3.47604 15.0729 2.40061 15.8691 1.44037C16.6654 0.480123 17.709 0 19 0C20.3215 0 21.3803 0.480123 22.1766 1.44037C22.9728 2.40061 23.2476 3.47604 23.001 4.66667H34.1635C35.2261 4.66667 36.1312 5.03385 36.8788 5.76823C37.6263 6.50265 38 7.39186 38 8.43587V38.2308C38 39.2748 37.6263 40.164 36.8788 40.8984C36.1312 41.6328 35.2261 42 34.1635 42H3.83652ZM3.83652 39.6667H34.1635C34.5288 39.6667 34.8638 39.5171 35.1683 39.218C35.4728 38.9188 35.625 38.5897 35.625 38.2308V8.43587C35.625 8.07693 35.4728 7.74787 35.1683 7.4487C34.8638 7.14957 34.5288 7 34.1635 7H3.83652C3.47116 7 3.13623 7.14957 2.83171 7.4487C2.52724 7.74787 2.375 8.07693 2.375 8.43587V38.2308C2.375 38.5897 2.52724 38.9188 2.83171 39.218C3.13623 39.5171 3.47116 39.6667 3.83652 39.6667ZM8.3125 32.7949C8.3125 33.071 8.53636 33.2949 8.8125 33.2949H22.0625C22.3386 33.2949 22.5625 33.071 22.5625 32.7949V31.4615C22.5625 31.1854 22.3386 30.9615 22.0625 30.9615H8.8125C8.53636 30.9615 8.3125 31.1854 8.3125 31.4615V32.7949ZM8.3125 24C8.3125 24.2761 8.53636 24.5 8.8125 24.5H29.1875C29.4636 24.5 29.6875 24.2761 29.6875 24V22.6667C29.6875 22.3905 29.4636 22.1667 29.1875 22.1667H8.8125C8.53636 22.1667 8.3125 22.3905 8.3125 22.6667V24ZM8.3125 15.2051C8.3125 15.4813 8.53636 15.7051 8.8125 15.7051H29.1875C29.4636 15.7051 29.6875 15.4813 29.6875 15.2051V13.8718C29.6875 13.5957 29.4636 13.3718 29.1875 13.3718H8.8125C8.53636 13.3718 8.3125 13.5957 8.3125 13.8718V15.2051ZM19 5.6987C19.5146 5.6987 19.9401 5.53342 20.2766 5.20287C20.613 4.87231 20.7812 4.45426 20.7812 3.9487C20.7812 3.44315 20.613 3.02509 20.2766 2.69453C19.9401 2.36398 19.5146 2.1987 19 2.1987C18.4854 2.1987 18.0599 2.36398 17.7234 2.69453C17.387 3.02509 17.2188 3.44315 17.2188 3.9487C17.2188 4.45426 17.387 4.87231 17.7234 5.20287C18.0599 5.53342 18.4854 5.6987 19 5.6987Z" fill="white" fill-opacity="0.5"/>
</svg>
