<svg width="42" height="42" viewBox="0 0 42 42" fill="none" xmlns="http://www.w3.org/2000/svg">
<path d="M36.5796 41.5388C36.3752 41.7778 36.0035 41.771 35.8079 41.5247L20.2296 21.8997C18.2766 22.0017 16.4093 22.5413 14.6278 23.5183C13.0326 24.3932 11.6508 25.5444 10.4822 26.9721C10.2743 27.2261 9.8822 27.2312 9.6788 26.9737L8.35721 25.3001C8.21311 25.1176 8.2133 24.8594 8.36201 24.6807C9.55463 23.2473 10.9303 22.008 12.4889 20.9629C14.158 19.8436 15.9136 19.1232 17.7555 18.8017L10.6815 9.94345C9.21729 10.6639 7.69938 11.6679 6.12776 12.9557C4.72415 14.1058 3.44904 15.3663 2.30244 16.7372C2.09347 16.987 1.70508 16.9825 1.508 16.7231L0.235713 15.0491C0.0971206 14.8667 0.0998712 14.6132 0.244758 14.4358C1.45132 12.9585 2.758 11.6025 4.16481 10.3678C5.66729 9.04913 7.11852 8.00486 8.51851 7.23498L4.35288 2.01869C4.20715 1.8362 4.20716 1.57714 4.35289 1.39466L5.07599 0.489226C5.27616 0.238581 5.65722 0.238584 5.85739 0.489233L37.3866 39.9704C37.5363 40.1578 37.5318 40.425 37.3759 40.6073L36.5796 41.5388ZM20.963 39.7182C20.1334 39.7182 19.4321 39.3572 18.8593 38.6353C18.2864 37.9133 18 37.0375 18 36.0079C18 34.969 18.2864 34.0909 18.8593 33.3736C19.4321 32.6563 20.1334 32.2977 20.963 32.2977C21.7926 32.2977 22.4938 32.6563 23.0667 33.3736C23.6395 34.0909 23.926 34.969 23.926 36.0079C23.926 37.0375 23.6395 37.9133 23.0667 38.6353C22.4938 39.3572 21.7926 39.7182 20.963 39.7182ZM32.7166 26.2709C32.5165 26.5215 32.1354 26.5215 31.9352 26.2709L31.5037 25.7305L30.6815 24.7009L27.6634 20.9217C27.3584 20.5397 27.7087 20.047 28.1493 20.2586C28.8131 20.5773 29.5059 20.9852 30.2278 21.4823C31.4076 22.2946 32.5192 23.3292 33.5627 24.586C33.7118 24.7657 33.7114 25.0253 33.5657 25.2077L32.7166 26.2709ZM40.4198 16.7399C40.2204 16.9926 39.8376 16.9934 39.6318 16.7458C37.2521 13.8833 34.5199 11.6244 31.4352 9.96895C28.1772 8.2205 24.6864 7.34627 20.963 7.34627C20.2889 7.34627 19.6204 7.37642 18.9574 7.43671C18.4105 7.48645 17.896 7.5567 17.4138 7.64746C17.2278 7.68246 17.0366 7.61467 16.9185 7.46683L15.0996 5.18913C14.8804 4.91466 15.0055 4.50672 15.3456 4.41915C15.9992 4.2509 16.7019 4.11817 17.4537 4.02096C18.4821 3.888 19.6519 3.82152 20.963 3.82152C25.1012 3.82152 28.9593 4.78618 32.5371 6.71551C36.0064 8.58635 39.0775 11.1578 41.7505 14.43C41.8976 14.6101 41.898 14.8681 41.7539 15.0505L40.4198 16.7399Z" fill="white" fill-opacity="0.5"/>
</svg>
